<svg xmlns="http://www.w3.org/2000/svg" viewBox="0 0 24 24" fill="currentColor">
  <path d="M11.998 24c-.321 0-.641-.084-.922-.247L8.455 22.36c-.48-.245-.921-.245-1.401 0L4.922 23.753c-.557.301-1.233.301-1.79 0L.922 22.247C.345 21.944 0 21.346 0 20.748V3.252c0-.598.345-1.196.922-1.499L3.132.247c.557-.301 1.233-.301 1.79 0L6.054 1.753c.48.245.921.245 1.401 0L11.076.247c.557-.301 1.233-.301 1.79 0L15.998 1.753c.48.245.921.245 1.401 0L20.92.247c.557-.301 1.233-.301 1.79 0L23.078 1.753c.577.303.922.901.922 1.499v17.496c0 .598-.345 1.196-.922 1.499L21.998 23.753c-.557.301-1.233.301-1.79 0L18.054 22.247c-.48-.245-.921-.245-1.401 0L12.92 23.753c-.281.163-.601.247-.922.247zM6.998 2.748c-.163 0-.321.042-.461.126L4.922 3.753c-.08.042-.08.042-.08.126v16.242c0 .084 0 .084.08.126L6.537 21.126c.14.084.298.126.461.126.163 0 .321-.042.461-.126L8.074 20.247c.08-.042.08-.042.08-.126V3.879c0-.084 0-.084-.08-.126L7.459 2.874c-.14-.084-.298-.126-.461-.126zm12 0c-.163 0-.321.042-.461.126L16.922 3.753c-.08.042-.08.042-.08.126v16.242c0 .084 0 .084.08.126l1.615.877c.14.084.298.126.461.126.163 0 .321-.042.461-.126l1.615-.877c.08-.042.08-.042.08-.126V3.879c0-.084 0-.084-.08-.126L19.459 2.874c-.14-.084-.298-.126-.461-.126z"/>
  <path d="M12 2C6.48 2 2 6.48 2 12s4.48 10 10 10 10-4.48 10-10S17.52 2 12 2zm0 18c-4.41 0-8-3.59-8-8s3.59-8 8-8 8 3.59 8 8-3.59 8-8 8z"/>
</svg> 